# xmcd
#
# Track frame offsets: 
#        150
#        20387
#        39070
#        62527
#        80893
#        101003
#        121110
#        132403
#        154250
#        175526
#
# Disc length: 2566 seconds
#
# Revision: 0
# Processed by: cddbd v1.5.1PL0 Copyright (c) Steve Scherf et al.
# Submitted via: ExactAudioCopy v0.95a4
#
DISCID=740a040a
DTITLE=Razni izvodjaci - TV STORY  - Ritam ljeta 1 POP
DYEAR=1900
DGENRE=Primus
TTITLE0=Oliver Dragojevic and Tony Cetinski - Morski vuk
TTITLE1=Severina - Kad si sam
TTITLE2=More  - More 
TTITLE3=Neno Belan - Suncan dan
TTITLE4=Divas - Da ili ne
TTITLE5=Latino  - Divno je biti nekome nesto
TTITLE6=Neki to vole vruce - California 
TTITLE7=Meri Cetinic and Tedi Spalato and klapa Lucica - Konoba
TTITLE8=Dino Dvornik - Junak plaze
TTITLE9=Tedi Spalato  - Sve cu prezivit
EXTD=
EXTT0=
EXTT1=
EXTT2=
EXTT3=
EXTT4=
EXTT5=
EXTT6=
EXTT7=
EXTT8=
EXTT9=
PLAYORDER=
